{"title":"Mumbai Mirror 2013 Hindi DvDScr Sample Included ~ rDX","uid":8049939,"size":737328843,"categoryP":"video","categoryS":"movies","magnet":"?xt=urn:btih:3dca6fa5f9a7d63c1968f308346f7691d7105c62&amp;dn=Mumbai+Mirror+2013+Hindi+DvDScr+Sample+Included+%7E+rDX&amp;tr=udp%3A%2F%2Ftracker.openbittorrent.com%3A80&amp;tr=udp%3A%2F%2Fopen.demonii.com%3A1337&amp;tr=udp%3A%2F%2Ftracker.coppersurfer.tk%3A6969&amp;tr=udp%3A%2F%2Fexodus.desync.com%3A6969","seeders":1,"leechers":0,"uploader":"basicssom","files":2,"time":1358835801,"description":"Mumbai Mirror 2013 Hindi Movies DvDScr Sample Included ~ rDX\n\nScreen Shots :\n &lt;a href=&quot;\nhttp://myimghosting.serveftp.com/MumbaiMirror.html&quot; rel=&quot;nofollow&quot; target=&quot;_NEW&quot;&gt;\nhttp://myimghosting.serveftp.com/MumbaiMirror.html&lt;/a&gt;\n &lt;a href=&quot;\nhttp://myimghost.cwahi.net/MumbaiMirror.html&quot; rel=&quot;nofollow&quot; target=&quot;_NEW&quot;&gt;\nhttp://myimghost.cwahi.net/MumbaiMirror.html&lt;/a&gt;\n\n\nFormat                                   : Matroska\nFormat version                           : Version 1\nFile size                                : 696 MiB\nDuration                                 : 2h 7mn\nOverall bit rate                         : 761 Kbps\nEncoded date                             : UTC 2013-01-22 05:07:08\n\nVideo\nID                                       : 1\nFormat                                   : AVC\nFormat/Info                              : Advanced Video Codec\nFormat profile                           : &lt;a class=&quot;__cf_email__&quot; href=&quot;/cdn-cgi/l/email-protection&quot; data-cfemail=&quot;c880a1afa08884fbe6f8&quot;&gt;[email&amp;#160;protected]&lt;/a&gt;&lt;script cf-hash='f9e31' type=&quot;text/javascript&quot;&gt;\n/* &lt;![CDATA[ */!function(){try{var t=&quot;currentScript&quot;in document?document.currentScript:function(){for(var t=document.getElementsByTagName(&quot;script&quot;),e=t.length;e--;)if(t[e].getAttribute(&quot;cf-hash&quot;))return t[e]}();if(t&amp;&amp;t.previousSibling){var e,r,n,i,c=t.previousSibling,a=c.getAttribute(&quot;data-cfemail&quot;);if(a){for(e=&quot;&quot;,r=parseInt(a.substr(0,2),16),n=2;a.length-n;n+=2)i=parseInt(a.substr(n,2),16)^r,e+=String.fromCharCode(i);e=document.createTextNode(e),c.parentNode.replaceChild(e,c)}}}catch(u){}}();/* ]]&gt; */&lt;/script&gt;\nFormat settings, CABAC                   : Yes\nFormat settings, ReFrames                : 4 frames\nCodec ID                                 : V_MPEG4/ISO/AVC\nDuration                                 : 2h 7mn\nBit rate                                 : 695 Kbps\nWidth                                    : 688 pixels\nHeight                                   : 300 pixels\nDisplay aspect ratio                     : 2.25:1\nFrame rate mode                          : Constant\nFrame rate                               : 25.000 fps\nColor space                              : YUV\nChroma subsampling                       : 4:2:0\nBit depth                                : 8 bits\nScan type                                : Progressive\nBits/(Pixel*Frame)                       : 0.135\nStream size                              : 624 MiB (90%)\nWriting library                          : x264 core 129 r2230 1cffe9f\nDefault                                  : Yes\nForced                                   : No\n\nAudio\nID                                       : 2\nFormat                                   : AC-3\nFormat/Info                              : Audio Coding 3\nMode extension                           : CM (complete main)\nFormat settings, Endianness              : Big\nCodec ID                                 : A_AC3\nDuration                                 : 2h 7mn\nBit rate mode                            : Constant\nBit rate                                 : 64.0 Kbps\nChannel(s)                               : 2 channels\nChannel positions                        : Front: L R\nSampling rate                            : 48.0 KHz\nBit depth                                : 16 bits\nCompression mode                         : Lossy\nStream size                              : 58.5 MiB (8%)\nDefault                                  : Yes\nForced                                   : No","torrent":{"xt":"urn:btih:3dca6fa5f9a7d63c1968f308346f7691d7105c62","amp;dn":"Mumbai+Mirror+2013+Hindi+DvDScr+Sample+Included+%7E+rDX","amp;tr":["udp%3A%2F%2Ftracker.openbittorrent.com%3A80","udp%3A%2F%2Fopen.demonii.com%3A1337","udp%3A%2F%2Ftracker.coppersurfer.tk%3A6969","udp%3A%2F%2Fexodus.desync.com%3A6969"],"infoHash":"3dca6fa5f9a7d63c1968f308346f7691d7105c62","infoHashBuffer":{"type":"Buffer","data":[61,202,111,165,249,167,214,60,25,104,243,8,52,111,118,145,215,16,92,98]},"announce":[],"urlList":[]}}